<svg width="150" height="250.00000000000003" xmlns="http://www.w3.org/2000/svg" preserveAspectRatio="xMidYMid meet">
 <g>
  <title>background</title>
  <rect fill="none" id="canvas_background" height="252" width="152" y="-1" x="-1"/>
 </g>
 <g>
  <title>Layer 1</title>
  <g id="svg_1" fill="#000000" transform="translate(0,700) scale(0.10000000149011612,-0.10000000149011612) ">
   <path id="svg_2" d="m1206.229137,6944.346297c-67,-40 -85,-61 -85,-99c0,-46 20,-58 59,-36c14,9 44,19 65,22c57,11 86,33 86,67c0,50 -73,77 -125,46zm100,-29c17,-16 -10,-43 -57,-54c-24,-6 -59,-19 -76,-28c-32,-16 -32,-16 -32,7c0,42 85,100 130,90c14,-3 29,-10 35,-15z"/>
   <path id="svg_3" d="m1313.229137,6827.346297c-42,-10 -55,-22 -50,-49c2,-16 19,-29 63,-47c93,-37 125,-30 125,31c0,62 -51,86 -138,65zm96,-26c25,-17 29,-46 8,-63c-11,-9 -24,-8 -58,7c-23,11 -52,23 -62,26c-26,9 -9,26 36,36c49,12 52,11 76,-6z"/>
   <path id="svg_4" d="m476.229137,6727.346297c-115,-25 -244,-88 -305,-149c-37,-37 -50,-60 -68,-120c-12,-40 -19,-78 -16,-83c3,-5 -15,-27 -40,-49c-38,-33 -46,-47 -46,-75c0,-24 6,-38 23,-49c21,-13 26,-29 36,-114c7,-55 9,-121 6,-148c-4,-31 7,-138 30,-303c19,-140 49,-354 66,-475c35,-254 34,-252 59,-260c12,-4 21,-18 24,-38c3,-18 10,-66 17,-107c6,-41 17,-85 24,-96c35,-55 236,-112 425,-121c237,-10 480,41 526,113c8,12 21,65 27,117c10,78 16,98 35,113c20,17 25,45 62,334c87,691 92,734 81,738c-24,8 1,242 25,242c21,0 35,38 28,75c-4,23 -18,45 -42,65c-25,20 -36,39 -39,62c-17,161 -106,247 -330,315c-82,24 -103,27 -303,29c-183,3 -228,1 -305,-16zm420,-20c56,-5 137,-20 185,-36c171,-53 250,-111 276,-201c9,-30 14,-56 12,-58c-2,-3 -32,7 -66,21c-85,34 -191,60 -325,80c-246,36 -605,-2 -793,-85c-26,-12 -49,-20 -51,-18c-1,2 4,26 13,53c21,63 71,115 153,158c154,80 349,109 596,86zm142,-254c170,-35 353,-107 402,-160c34,-36 20,-42 -31,-13c-163,94 -502,154 -774,136c-228,-14 -462,-73 -556,-140c-41,-29 -50,-13 -11,20c96,80 297,146 533,175c69,8 366,-4 437,-18zm-161,-86c207,-21 444,-86 513,-139c24,-18 24,-19 13,-106c-7,-48 -14,-90 -17,-93c-2,-3 -35,9 -72,26c-153,69 -305,96 -543,96c-270,0 -467,-43 -652,-142c-7,-4 -24,77 -32,155c-5,50 -4,53 28,72c74,46 244,96 406,120c142,21 231,24 356,11zm129,-270c146,-22 226,-45 314,-90c102,-51 99,-4 28,-580c-35,-278 -65,-505 -68,-504c-2,0 -16,8 -30,17c-42,28 -148,66 -234,85c-61,13 -126,17 -275,16c-220,0 -294,-14 -425,-78c-38,-19 -73,-32 -77,-28c-4,4 -23,124 -43,267c-20,143 -51,366 -69,495l-34,235l26,23c65,57 265,125 437,147c150,19 302,18 450,-5zm-149,-1091c60,-6 143,-19 185,-29c81,-21 183,-62 194,-79c5,-9 -13,-170 -20,-179c-1,-1 -23,10 -49,24c-83,47 -176,65 -348,71c-226,8 -407,-24 -478,-83c-22,-19 -31,-22 -34,-12c-4,13 -26,161 -26,177c0,27 221,97 347,110c113,12 109,12 229,0zm128,-245c83,-16 156,-41 156,-54c0,-14 -102,-51 -183,-66c-111,-20 -253,-20 -362,0c-97,18 -215,55 -215,67c0,5 37,20 82,34c139,44 349,51 522,19zm191,-104c-11,-18 -75,-40 -176,-60c-119,-24 -297,-26 -419,-5c-47,8 -86,15 -87,15c-2,0 -3,4 -3,9c0,5 24,3 53,-6c28,-8 115,-17 193,-20c121,-5 155,-3 243,16c56,12 121,30 144,41c49,22 61,24 52,10zm-740,-20c28,-12 37,-18 21,-15c-34,7 -96,33 -81,34c6,1 33,-8 60,-19z"/>
   <path id="svg_5" d="m326.229137,5661.346297c-56,-54 -82,-84 -69,-81c12,2 28,1 35,-4c9,-5 23,1 40,17c15,14 29,21 33,16c3,-5 -8,-91 -25,-191c-29,-174 -30,-183 -13,-202c24,-26 35,-15 94,100c27,53 57,106 65,116c14,18 15,14 13,-56c-2,-78 9,-109 38,-109c8,0 34,41 59,90c25,50 50,90 56,90c8,0 10,-21 5,-70c-5,-45 -4,-70 3,-70c5,0 12,4 16,9c3,5 18,12 33,16l27,6l3,122c3,96 0,132 -12,161c-24,57 -43,45 -94,-59c-25,-50 -46,-85 -49,-80c-2,6 0,46 5,88c6,60 5,82 -5,97c-21,30 -37,24 -57,-17c-31,-66 -88,-165 -92,-160c-2,2 3,55 11,117c9,62 14,119 11,126c-11,29 -45,11 -131,-72z"/>
   <path id="svg_6" d="m866.229137,5680.346297c-32,-27 -66,-64 -77,-83c-25,-48 -24,-124 2,-150c28,-28 41,-25 80,15c19,19 36,35 40,35c3,0 10,-10 15,-22c13,-29 41,-34 66,-12c18,16 20,16 37,1c25,-22 31,-21 62,8l27,25l18,-20c10,-11 28,-20 40,-20c25,0 75,49 75,73c0,20 -4,21 -30,5c-16,-10 -23,-10 -35,3c-14,14 -12,20 20,62c25,32 35,56 35,81c0,51 -13,51 -49,0c-17,-25 -37,-44 -43,-42c-6,2 -17,20 -24,39c-12,36 -28,39 -56,11c-16,-16 -16,-20 3,-72c13,-37 16,-57 9,-64c-7,-7 -12,-4 -16,12c-8,30 -19,28 -44,-8c-29,-40 -40,-38 -40,8c0,35 -14,62 -31,62c-4,0 -17,-17 -30,-37c-25,-43 -69,-93 -81,-93c-4,0 -8,12 -8,27c0,20 17,43 65,91c54,52 63,66 55,81c-5,10 -6,21 -3,25c3,3 0,6 -8,6c-8,0 -41,-21 -74,-47z"/>
  </g>
 </g>
</svg>
